<?xml version="1.0" standalone="no"?>
<!DOCTYPE svg PUBLIC "-//W3C//DTD SVG 20010904//EN"
 "http://www.w3.org/TR/2001/REC-SVG-20010904/DTD/svg10.dtd">
<svg version="1.0" xmlns="http://www.w3.org/2000/svg"
 width="150.000000pt" height="113.700000pt" viewBox="0 0 150.000000 113.700000"
 preserveAspectRatio="xMidYMid meet">
<metadata>
Created by potrace 1.16, written by Peter Selinger 2001-2019
</metadata>
<g transform="translate(0.000000,113.700000) scale(0.030000,-0.030000)"
fill="#000000" stroke="none">
<path d="M2778 3783 c25 -5 28 -13 10 -31 -9 -9 -3 -15 23 -26 18 -8 37 -12
41 -10 5 3 8 -3 8 -12 0 -14 -3 -15 -12 -6 -16 16 -29 15 -25 0 1 -7 11 -17
22 -21 16 -7 17 -10 5 -17 -17 -11 -50 5 -50 24 0 9 -9 13 -25 11 -14 -1 -25
2 -25 6 0 5 5 9 10 9 6 0 10 7 10 16 0 14 -3 14 -15 4 -16 -13 -20 -48 -7 -65
9 -13 32 -13 31 0 -1 6 -5 9 -11 7 -5 -1 -6 3 -3 9 5 8 12 6 23 -5 14 -14 14
-17 -4 -37 -19 -21 -19 -21 2 -18 11 2 28 -2 37 -10 20 -16 23 -1 5 18 -11 11
-10 12 1 6 8 -4 17 -2 23 6 7 10 8 7 5 -12 -3 -24 1 -28 35 -38 21 -7 38 -16
38 -21 0 -13 -3 -12 -37 1 -46 19 -75 20 -69 3 3 -9 1 -12 -5 -9 -5 4 -7 16
-3 28 7 22 6 22 -14 4 -22 -20 -42 -16 -42 8 0 8 -4 16 -9 20 -6 3 -9 -4 -8
-15 1 -11 5 -20 11 -20 5 0 -1 -8 -12 -19 -25 -21 -31 -41 -7 -21 26 21 27 5
2 -22 l-23 -25 -11 24 c-7 15 -8 23 -1 23 7 0 6 5 -1 13 -6 8 -9 17 -6 21 3 3
-1 2 -7 -4 -9 -8 -9 -20 0 -56 10 -37 10 -49 0 -61 -10 -13 -13 -13 -24 2 -7
10 -18 14 -25 10 -8 -6 -5 -13 12 -26 13 -10 18 -19 11 -19 -10 0 -10 -4 2
-16 9 -8 16 -25 16 -36 0 -18 -2 -19 -17 -7 -15 13 -16 11 -9 -13 8 -33 -7
-37 -44 -11 -22 16 -23 16 -17 0 3 -9 2 -17 -3 -17 -6 0 -10 5 -10 10 0 6 -7
10 -15 10 -8 0 -15 9 -15 20 0 11 -4 20 -10 20 -5 0 -10 7 -10 15 0 8 5 15 11
15 5 0 -1 11 -15 24 -15 13 -26 30 -26 39 0 30 -18 27 -38 -7 -18 -30 -19 -36
-6 -47 11 -9 14 -7 14 11 0 13 5 20 13 17 6 -2 11 -10 9 -16 -1 -6 3 -10 9 -9
6 2 14 -3 17 -11 3 -8 0 -11 -7 -7 -6 4 -11 2 -11 -4 0 -6 -4 -9 -8 -6 -10 6
-8 -40 3 -74 12 -37 27 -47 76 -52 24 -3 53 -8 63 -13 14 -6 17 -5 12 3 -5 8
1 12 15 12 17 0 20 5 17 25 -3 15 1 30 10 37 13 10 14 10 8 1 -4 -7 -2 -13 4
-13 6 0 15 11 22 25 6 13 15 22 20 19 5 -3 7 0 6 6 -2 6 7 19 20 27 20 14 22
14 22 -1 0 -9 7 -16 15 -16 12 0 13 4 6 18 -5 10 -17 25 -26 32 -13 11 -18 10
-30 -6 -8 -10 -15 -21 -15 -24 0 -11 -40 -6 -44 6 -3 7 5 9 20 6 23 -4 24 -3
14 22 -14 37 -13 43 5 20 15 -20 21 -8 6 15 -5 8 -7 21 -4 28 5 12 7 12 15 1
8 -10 9 -10 5 2 -2 8 3 22 11 30 14 13 15 12 10 -1 -4 -9 2 -20 13 -27 10 -7
19 -19 19 -26 0 -8 9 -17 19 -21 26 -8 43 -31 45 -57 0 -12 8 -24 16 -26 13
-5 13 -3 1 11 -12 15 -10 17 14 17 24 0 26 -2 15 -15 -11 -13 -7 -21 23 -49
41 -38 49 -61 16 -51 -19 6 -20 5 -9 -17 12 -21 11 -21 -17 5 -30 28 -50 36
-37 15 6 -10 5 -10 -8 -1 -8 7 -18 10 -21 7 -8 -8 64 -74 81 -74 6 0 12 -4 12
-9 0 -5 -6 -12 -12 -14 -9 -4 -8 -6 2 -6 9 -1 21 4 28 11 9 9 12 9 12 1 0 -7
-9 -15 -20 -18 -11 -4 -18 -11 -14 -16 4 -6 10 -6 19 1 10 8 14 4 17 -15 3
-14 3 -25 1 -25 -11 0 -49 25 -60 39 -11 14 -12 13 -13 -6 0 -13 4 -23 8 -23
14 0 52 -78 39 -83 -6 -2 -8 -11 -4 -21 4 -9 11 -14 17 -11 9 6 8 -3 -6 -42
-11 -28 -11 -53 -2 -59 4 -3 8 -10 8 -17 0 -8 -3 -8 -12 1 -17 17 -28 15 -28
-4 0 -8 5 -12 10 -9 6 3 10 -3 10 -14 0 -12 7 -21 16 -21 8 0 12 -5 9 -10 -4
-6 -14 -9 -22 -8 -20 4 -29 -42 -11 -54 10 -7 10 -11 -3 -21 -9 -6 -21 -22
-28 -34 -13 -25 -56 -32 -64 -10 -3 6 -6 1 -7 -13 -1 -23 -2 -24 -14 -7 -7 9
-18 17 -24 17 -6 0 -13 6 -16 13 -3 6 -2 -1 1 -17 4 -20 3 -27 -6 -22 -15 10
-14 -2 3 -19 10 -11 16 -11 25 -2 9 9 11 8 6 -5 -8 -21 -27 -23 -57 -7 -15 8
-17 13 -8 19 9 6 7 11 -8 19 -18 10 -21 9 -16 -4 4 -8 2 -15 -3 -15 -6 0 -10
20 -11 44 0 34 4 46 16 49 12 3 10 5 -5 6 -12 0 -26 -5 -30 -12 -4 -8 -20 -17
-35 -21 -22 -5 -30 -1 -47 23 -25 35 -26 45 -6 61 12 10 15 10 15 -3 0 -11 7
-15 21 -12 28 6 28 6 18 30 -4 11 -8 14 -8 7 -1 -8 -9 -10 -26 -6 -14 3 -25 2
-25 -3 0 -5 -9 -9 -19 -9 -15 0 -17 3 -9 13 6 8 8 16 4 20 -3 3 -6 1 -6 -5 0
-7 -9 -12 -20 -12 -22 0 -26 10 -9 27 7 7 3 12 -15 17 -14 3 -26 11 -26 17 0
6 4 8 8 5 5 -3 9 1 9 8 0 8 -7 12 -15 8 -12 -4 -14 0 -10 16 4 12 1 25 -6 30
-18 11 -48 62 -36 62 5 0 10 -5 10 -11 0 -5 5 -7 10 -4 8 5 8 11 1 19 -6 7 -7
17 -3 21 4 5 -1 5 -11 2 -13 -5 -17 -2 -15 11 2 9 -3 16 -10 14 -6 -1 -11 4
-10 10 2 7 -3 12 -9 10 -7 -1 -13 5 -13 14 0 8 -4 13 -9 10 -13 -8 -34 21 -27
39 8 21 -11 66 -26 64 -30 -4 -38 2 -38 27 0 21 3 24 13 16 10 -8 13 -6 14 11
1 12 -3 25 -10 29 -9 6 -8 10 3 18 12 8 13 10 1 10 -8 0 -23 7 -33 17 -11 9
-18 11 -18 5 0 -7 5 -12 10 -12 6 0 10 -4 10 -10 0 -5 -7 -7 -15 -4 -10 4 -15
0 -15 -12 -1 -17 -2 -17 -10 -2 -14 23 3 61 28 63 11 1 20 -3 19 -8 -1 -5 3
-11 10 -14 7 -3 9 3 6 16 -3 12 -12 21 -20 21 -12 0 -13 3 -4 14 9 11 8 14 -6
12 -13 -1 -17 5 -15 24 3 27 20 42 40 35 6 -2 12 2 12 10 0 7 -14 17 -32 20
l-32 7 35 19 c42 23 50 23 42 3 -3 -9 0 -20 8 -25 11 -7 11 -9 1 -9 -7 0 -10
-5 -6 -11 5 -8 10 -6 16 5 5 9 6 22 1 29 -4 6 -9 21 -10 32 -5 27 -26 38 -39
20 -6 -8 -17 -15 -24 -15 -7 0 -10 -3 -7 -7 4 -3 -2 -12 -13 -20 -11 -8 -20
-23 -20 -34 0 -17 -3 -18 -21 -9 -17 9 -29 6 -70 -20 -44 -29 -67 -50 -36 -35
6 4 3 -1 -8 -10 -11 -9 -28 -14 -38 -11 -9 2 -15 1 -12 -4 9 -15 -24 -32 -51
-26 -19 5 -24 4 -18 -5 5 -9 2 -10 -9 -6 -10 3 -17 2 -17 -4 0 -6 -3 -9 -7 -7
-5 2 -21 -10 -38 -26 -16 -16 -23 -26 -15 -21 11 6 10 3 -3 -12 -9 -11 -14
-23 -10 -26 3 -4 2 -7 -4 -7 -13 0 -32 -46 -33 -80 0 -14 -3 -58 -6 -99 -4
-47 -2 -71 4 -67 6 4 9 -17 7 -54 -2 -35 1 -58 6 -54 5 3 9 -4 9 -16 0 -12 -4
-18 -10 -15 -6 4 -9 -7 -7 -27 2 -26 7 -32 22 -30 16 2 17 1 5 -7 -8 -5 -17
-8 -21 -6 -3 3 -16 -7 -29 -20 -23 -24 -23 -25 -5 -45 17 -18 17 -20 2 -14 -9
3 -17 10 -17 15 0 5 -6 8 -12 6 -7 -1 -12 3 -11 10 2 7 -3 10 -11 7 -8 -3 -27
2 -43 11 -15 9 -20 14 -10 11 9 -3 25 -9 35 -12 9 -3 7 1 -6 8 -15 10 -52 13
-118 12 -53 -1 -109 2 -126 7 -22 6 -34 4 -45 -6 -19 -19 -28 -19 -60 3 -21
13 -25 13 -18 2 10 -17 14 -50 6 -50 -3 0 -15 7 -26 16 -17 13 -18 16 -5 24
12 8 11 10 -5 10 -17 0 -17 2 -5 10 8 5 10 10 4 10 -18 0 -49 -41 -46 -61 2
-10 -2 -19 -8 -19 -11 0 -50 -58 -50 -75 0 -5 5 -3 10 5 13 20 12 10 -1 -29
-6 -17 -15 -31 -21 -31 -5 0 -6 -4 -3 -10 3 -5 2 -10 -3 -10 -5 0 -9 -8 -9
-17 0 -35 -3 -44 -13 -38 -6 4 -7 -1 -3 -11 4 -10 2 -15 -4 -11 -10 6 -43 -53
-43 -76 1 -7 7 2 15 18 22 50 17 22 -12 -65 -3 -8 -6 -35 -8 -59 -2 -24 -7
-46 -12 -50 -5 -3 -8 -16 -7 -29 1 -12 -3 -22 -9 -22 -6 0 -2 -9 7 -19 16 -18
16 -19 -1 -17 -12 1 -19 -7 -21 -24 -2 -14 -7 -29 -12 -35 -4 -5 -7 -21 -5
-34 2 -26 23 -39 64 -40 14 -1 42 -13 63 -27 40 -28 50 -47 21 -38 -10 4 -5
-3 12 -15 19 -13 32 -17 36 -10 10 17 42 2 75 -33 16 -17 23 -28 16 -24 -25
14 -57 -2 -58 -29 -1 -13 1 -23 5 -20 4 2 15 -5 24 -15 9 -11 12 -22 7 -25 -5
-3 -13 3 -19 12 -5 10 -13 14 -18 10 -12 -13 28 -38 49 -31 13 4 16 1 12 -9
-3 -8 -16 -14 -29 -13 -13 0 -21 4 -18 9 2 4 -1 7 -8 7 -6 0 -9 -8 -6 -19 3
-14 1 -18 -9 -14 -8 3 -14 9 -14 15 0 5 -5 6 -10 3 -6 -3 -10 -1 -10 4 0 6 7
11 17 11 9 0 13 3 10 6 -3 4 -2 15 4 26 9 16 7 20 -12 25 -19 5 -20 8 -7 17
18 13 42 57 31 55 -4 -1 -10 0 -13 1 -3 1 -12 3 -20 5 -36 7 -44 11 -60 25 -9
8 -14 21 -12 29 8 21 -39 51 -79 51 -37 0 -54 17 -51 50 1 8 -1 10 -4 4 -3 -8
-16 -5 -42 7 -20 11 -38 15 -40 11 -1 -5 -15 -7 -30 -4 l-27 6 25 6 c19 5 12
8 -32 14 -36 5 -64 3 -77 -3 -26 -14 -34 -14 -26 2 4 6 0 4 -7 -5 -10 -11 -19
-14 -29 -8 -10 7 -16 4 -21 -8 -6 -15 -7 -14 -7 3 -1 23 -53 50 -77 41 -10 -4
-14 -1 -12 6 7 19 49 17 70 -4 10 -10 30 -18 45 -18 26 0 26 1 8 14 -11 8 -23
12 -27 10 -5 -3 -8 0 -8 7 0 7 -3 10 -6 6 -4 -3 -13 0 -20 8 -8 8 -22 11 -31
8 -11 -4 -14 -3 -9 5 8 14 13 13 -79 18 -38 2 -92 5 -120 7 -27 1 -56 -2 -63
-7 -8 -6 -16 -6 -20 0 -9 11 -92 12 -92 0 0 -4 -9 -6 -20 -3 -14 3 -28 -4 -45
-25 -14 -16 -23 -34 -20 -39 6 -9 -11 -46 -31 -66 -15 -15 -7 -52 16 -73 9 -8
10 -11 1 -5 -12 9 -12 7 -1 -12 8 -12 17 -20 20 -18 9 5 13 -41 13 -147 0 -48
4 -85 8 -83 4 3 5 -5 1 -17 -3 -12 -1 -19 4 -15 6 3 10 -9 10 -28 0 -19 -4
-31 -8 -29 -5 3 -6 -7 -3 -23 5 -19 4 -24 -3 -15 -15 22 -24 -14 -27 -118 -1
-55 1 -85 5 -70 8 24 8 24 9 -6 1 -17 12 -46 26 -65 72 -100 105 -152 100
-159 -3 -5 1 -39 9 -77 8 -37 17 -97 21 -133 8 -78 23 -132 36 -125 5 4 6 0 4
-8 -3 -7 5 -29 18 -48 26 -39 44 -105 25 -93 -7 4 -8 3 -4 -4 5 -8 13 -9 26
-2 13 7 19 6 24 -6 4 -11 1 -14 -13 -9 -10 3 -23 0 -29 -8 -8 -10 -6 -13 10
-14 12 -1 26 -9 30 -17 5 -9 18 -21 29 -27 23 -12 239 -33 344 -34 112 0 365
41 470 77 72 24 138 33 255 33 117 -1 127 -2 160 -25 19 -14 37 -28 38 -33 2
-4 7 -5 11 -2 4 2 25 -11 46 -30 21 -19 43 -35 49 -35 6 0 4 -5 -4 -10 -13 -9
-7 -14 13 -11 4 0 7 -4 7 -10 0 -5 6 -7 13 -3 6 4 9 3 4 -1 -10 -11 102 -125
117 -119 7 3 21 -3 31 -13 11 -10 29 -20 40 -21 11 -2 22 -7 25 -10 3 -4 19
-12 35 -19 17 -6 57 -23 90 -37 81 -34 191 -36 250 -4 61 33 187 78 218 78 28
0 126 -50 147 -75 7 -8 16 -15 20 -15 7 0 141 -61 229 -103 13 -7 29 -12 35
-12 6 0 29 -6 51 -12 116 -34 142 -36 463 -36 334 0 476 6 570 24 46 9 50 12
37 25 -23 23 -18 28 10 10 28 -18 39 -21 30 -6 -3 6 1 7 9 4 8 -3 40 7 71 22
47 24 60 27 84 18 34 -13 61 2 61 35 0 12 4 19 10 16 6 -3 10 3 10 14 0 23
-15 28 -23 9 -4 -8 -6 -7 -6 3 -1 14 -29 35 -36 27 -1 -2 -7 -12 -13 -23 -12
-23 -41 -26 -60 -8 -19 18 -32 16 -26 -4 5 -16 4 -16 -10 1 -8 10 -13 22 -11
26 3 4 -4 10 -14 13 -14 3 -18 1 -14 -9 3 -9 -2 -12 -16 -9 -14 2 -21 -1 -21
-11 0 -17 -20 -19 -20 -1 -1 7 -6 4 -15 -6 -9 -12 -20 -17 -33 -13 -14 5 -27
-2 -47 -26 -15 -18 -31 -32 -34 -32 -3 1 -12 -1 -19 -3 -6 -3 -29 -2 -50 2
-20 4 -71 8 -112 10 -43 1 -76 7 -78 14 -2 6 -16 11 -30 11 -37 0 -48 10 -57
47 -3 18 -11 35 -16 38 -11 7 -11 -12 0 -40 7 -16 2 -23 -28 -37 -19 -9 -40
-14 -45 -10 -23 14 -56 10 -56 -6 0 -13 2 -14 9 -4 7 11 9 11 14 -2 7 -17 -55
-42 -75 -30 -6 4 -34 7 -62 7 -28 -1 -43 1 -33 4 9 2 17 11 17 19 0 8 5 14 10
14 6 0 10 -7 10 -15 0 -13 2 -14 14 -3 10 9 11 17 4 26 -8 9 -6 12 7 12 13 0
15 6 10 32 -4 24 -3 29 4 18 8 -12 11 -11 17 5 4 11 12 23 17 27 16 10 -18 53
-43 55 -13 1 -28 7 -33 12 -18 18 2 26 36 13 26 -10 34 -9 46 3 8 8 11 18 7
22 -4 4 -11 1 -17 -7 -8 -13 -11 -12 -20 4 -9 15 -13 16 -20 5 -4 -7 -11 -10
-16 -6 -4 5 -1 12 7 17 13 8 13 12 -2 27 -17 16 -18 16 -18 0 0 -9 -4 -17 -10
-17 -5 0 -10 11 -10 24 0 14 -4 27 -8 30 -4 2 -7 -21 -6 -52 1 -44 6 -60 23
-73 20 -16 28 -39 14 -39 -3 0 -14 7 -24 15 -15 14 -18 14 -33 -1 -16 -15 -17
-15 -10 11 6 25 5 26 -15 16 -21 -12 -23 -17 -24 -58 0 -12 -4 -20 -8 -17 -5
3 -9 16 -9 30 0 21 -19 36 -21 17 0 -5 -2 -17 -4 -27 -4 -21 20 -50 33 -42 5
3 14 -11 20 -31 l11 -37 -29 32 c-16 18 -34 32 -41 32 -7 0 -4 -6 7 -14 19
-15 19 -15 -1 -12 -31 4 -37 50 -15 109 19 51 19 67 -3 67 -8 0 -7 -3 2 -9 14
-9 7 -31 -10 -31 -6 0 -7 5 -4 10 3 6 -1 10 -10 10 -11 0 -14 6 -10 23 4 15 1
28 -9 36 -10 8 -16 9 -16 3 0 -6 5 -14 10 -17 6 -4 4 -12 -5 -22 -14 -14 -18
-14 -35 2 -14 13 -17 22 -10 30 6 7 7 21 3 30 -4 13 -3 16 6 11 6 -4 11 -15
10 -24 -2 -29 1 -46 8 -39 3 4 8 19 9 34 4 35 24 83 35 83 13 0 11 -12 -6 -34
-17 -23 -20 -46 -5 -46 6 0 10 7 10 15 0 20 17 19 29 -3 6 -9 11 -13 11 -8 0
5 6 3 14 -3 9 -7 17 -8 20 -3 3 6 -5 13 -19 16 -14 4 -25 11 -25 16 0 13 7 13
31 -1 19 -10 20 -8 13 28 -4 21 -8 39 -9 41 -7 8 -45 9 -50 1 -4 -5 -11 -9
-17 -9 -7 0 -6 5 2 15 12 15 6 35 -12 35 -5 0 -7 -7 -4 -16 5 -14 4 -15 -8 -4
-21 17 -14 62 18 110 14 22 26 43 26 48 0 4 13 19 30 32 16 14 29 33 30 42 0
22 40 35 51 17 6 -10 9 -7 10 11 l0 25 11 -23 c11 -22 28 -30 28 -12 0 6 -4
10 -9 10 -4 0 -7 11 -6 25 3 25 48 78 59 68 3 -3 4 4 1 15 -2 15 7 31 31 52
19 16 40 30 46 30 16 0 82 60 91 83 6 16 5 18 -6 8 -8 -6 -17 -8 -20 -5 -9 9
21 36 32 29 6 -3 15 3 20 14 9 15 6 22 -12 35 -18 14 -18 15 -2 7 13 -6 24 -5
31 3 14 15 6 36 -13 36 -13 0 -13 -2 -2 -17 13 -15 12 -15 -8 -3 -19 12 -20
16 -7 35 8 12 12 29 9 37 -5 12 1 13 40 4 25 -6 41 -12 36 -14 -5 -2 -7 -10
-5 -17 10 -25 -8 -40 -23 -20 -7 11 -13 15 -13 9 0 -17 47 -64 64 -64 9 0 16
-4 16 -10 0 -5 5 -10 11 -10 17 0 -1 21 -27 30 -24 9 -33 30 -14 30 6 0 10 8
10 18 0 18 33 64 44 63 28 -4 34 1 28 21 -4 18 -2 20 16 16 12 -4 22 -2 22 3
0 15 -71 89 -86 89 -9 0 -14 11 -14 29 0 51 -12 92 -25 87 -7 -2 -15 4 -18 15
-3 11 -15 23 -27 26 -12 3 -19 11 -17 17 3 7 -4 12 -16 12 -12 -1 -22 5 -23
12 -4 32 -6 36 -13 18 -7 -17 -8 -17 -24 -2 -9 10 -17 14 -17 10 0 -4 -9 1
-19 10 -11 10 -22 13 -25 8 -3 -5 8 -15 24 -22 17 -7 30 -16 30 -21 0 -5 -17
-2 -37 7 -21 9 -50 20 -65 26 -27 10 -39 38 -17 38 5 0 8 -4 4 -9 -3 -5 -1
-12 5 -16 5 -3 10 -1 10 4 0 6 12 11 26 11 25 0 26 2 21 37 -7 39 10 35 18 -5
7 -36 14 -43 34 -30 18 11 18 12 -3 29 -11 10 -16 18 -9 19 6 0 13 -6 15 -12
3 -9 9 -8 21 4 16 16 16 17 0 26 -9 6 -16 22 -16 39 0 18 -9 35 -24 46 -22 17
-23 17 -20 0 1 -10 5 -22 8 -28 3 -5 3 -21 -1 -35 -6 -23 -7 -22 -14 13 -4 20
-12 37 -18 37 -5 0 -8 -6 -5 -12 3 -7 8 -20 12 -29 4 -10 0 -19 -10 -23 -9 -3
-13 -2 -10 3 3 6 -7 22 -21 36 -22 22 -24 29 -13 37 11 8 10 9 -3 4 -10 -3
-18 -1 -18 4 0 6 5 10 10 10 15 0 12 17 -2 17 -7 0 -22 4 -33 8 -17 6 -18 5
-5 -7 21 -18 41 -66 31 -72 -5 -3 -7 -24 -5 -46 2 -25 0 -38 -6 -35 -6 4 -7
-1 -3 -11 5 -13 3 -16 -10 -11 -9 3 -17 2 -17 -4 0 -13 -47 21 -55 40 -4 11
-3 12 10 1 18 -15 19 -1 1 23 -13 17 -32 25 -22 8 3 -4 -6 -18 -19 -31 -24
-23 -25 -23 -45 -5 -11 10 -18 21 -15 25 2 4 -7 5 -20 2 -21 -4 -25 0 -25 19
0 13 -7 37 -15 53 -8 15 -15 34 -15 42 0 8 -6 11 -16 7 -8 -3 -13 -12 -10 -19
3 -7 -2 -17 -11 -22 -18 -11 -9 -32 14 -32 10 0 13 6 9 16 -4 10 -1 14 6 12 7
-3 13 -9 13 -14 0 -5 3 -13 6 -19 4 -5 -2 -18 -11 -28 -12 -12 -20 -15 -25 -8
-3 6 -1 11 5 11 6 0 8 5 5 10 -3 6 -15 10 -25 10 -14 0 -18 -5 -13 -17 3 -10
3 -15 -1 -11 -4 3 -10 21 -13 40 -6 39 -29 68 -55 68 -13 0 -17 4 -12 13 4 6
4 9 -1 5 -4 -4 -14 0 -22 10 -11 15 -12 13 -3 -11 6 -16 8 -32 6 -35 -2 -4 4
-24 14 -45 14 -28 15 -35 5 -27 -8 7 -15 19 -15 27 0 11 -3 13 -12 5 -18 -14
-68 -3 -76 17 -3 9 -10 20 -16 24 -8 6 -8 10 0 13 13 5 7 41 -9 62 -7 8 -5 12
8 12 15 0 16 2 4 18 -13 15 -12 16 3 4 9 -8 23 -10 29 -6 7 4 9 3 6 -3 -4 -6
0 -13 8 -17 21 -8 19 17 -2 36 -10 8 -31 19 -48 22 -32 8 -57 29 -68 59 -3 9
-13 17 -22 17 -17 0 -18 4 -6 28 5 9 14 29 22 44 7 16 14 26 16 24 3 -2 0 -14
-7 -25 -10 -19 -8 -21 22 -20 18 1 25 3 16 6 -29 7 -20 23 12 23 17 0 30 -3
30 -6 0 -10 -28 -34 -41 -34 -7 0 -4 -9 9 -20 27 -25 35 -25 27 -1 -4 12 4 30
22 52 15 18 22 30 16 25 -8 -4 -13 -2 -13 4 0 6 7 13 15 16 8 4 15 12 15 20 0
9 10 12 31 9 23 -3 29 0 25 10 -9 23 18 36 41 20 11 -8 23 -11 27 -8 3 3 6 -2
6 -11 0 -10 -9 -20 -20 -23 -11 -3 -20 -9 -20 -14 0 -4 9 -7 20 -6 11 1 20 6
20 11 0 5 2 7 5 4 9 -8 -6 -38 -16 -32 -5 3 -9 -2 -9 -10 0 -11 9 -16 26 -16
23 0 25 3 20 25 -7 28 0 31 27 11 19 -14 23 -46 6 -46 -6 0 -3 -7 5 -16 13
-13 14 -18 3 -29 -7 -7 -22 -15 -33 -19 -10 -3 -3 -3 18 0 24 3 38 0 41 -8 2
-7 8 -9 13 -5 5 4 2 12 -6 17 -7 5 -15 22 -16 39 -2 24 1 29 14 24 9 -3 23
-13 30 -21 6 -9 12 -12 12 -6 0 5 4 2 10 -6 5 -8 12 -12 15 -8 4 3 -6 18 -22
33 -27 26 -27 27 -5 22 19 -4 21 -3 11 9 -6 7 -15 11 -20 8 -5 -3 -9 1 -9 8
-1 8 -7 5 -17 -7 -13 -16 -15 -17 -10 -2 4 9 2 17 -3 17 -6 0 -10 4 -10 9 0 6
12 6 29 1 20 -6 31 -5 34 3 3 9 13 9 41 0 35 -11 37 -10 30 9 -5 16 -3 20 10
15 8 -3 18 -2 21 4 9 14 25 1 25 -21 0 -10 7 -20 15 -23 11 -5 14 2 11 33 -2
22 1 40 6 40 5 0 6 6 2 13 -5 8 -2 8 9 -2 17 -14 24 -57 8 -46 -5 3 -13 0 -16
-6 -5 -7 1 -9 16 -7 15 2 24 9 23 20 -1 10 4 14 12 11 17 -6 18 -30 2 -36 -8
-4 -7 -6 4 -6 26 -1 26 31 1 57 -13 13 -23 27 -23 32 0 5 -6 7 -13 4 -8 -3
-20 3 -27 13 -11 14 -11 15 -1 6 10 -8 20 -9 37 -1 13 6 27 8 32 3 4 -4 1 -10
-5 -12 -7 -3 -13 -10 -13 -16 1 -14 40 31 40 45 0 6 -6 8 -14 5 -8 -3 -17 1
-20 9 -3 9 -10 12 -16 9 -6 -4 -7 -12 -4 -18 4 -7 1 -6 -7 2 -12 11 -12 14 0
18 11 5 11 7 0 14 -12 8 -11 11 1 19 8 5 21 8 28 5 7 -3 12 1 11 8 -3 28 2 39
17 33 11 -4 14 -1 9 13 -4 14 1 20 21 25 26 7 54 -7 54 -27 0 -5 -8 -3 -18 6
-23 21 -33 22 -26 3 3 -8 1 -17 -5 -21 -6 -3 -11 -16 -11 -28 -1 -22 -1 -22
-15 -3 -13 17 -15 17 -15 3 0 -9 -8 -20 -17 -26 -10 -5 -14 -13 -9 -18 5 -4
11 -2 13 5 8 20 33 14 33 -9 0 -11 4 -18 8 -15 5 3 27 0 49 -6 29 -7 40 -14
36 -24 -7 -18 7 -18 21 1 8 10 15 12 26 5 13 -8 12 -10 -2 -10 -10 0 -18 -4
-18 -10 0 -5 -7 -10 -15 -10 -8 0 -15 -5 -15 -11 0 -5 4 -8 9 -5 13 8 42 -4
36 -15 -3 -4 -13 -5 -23 -2 -16 6 -16 6 0 -11 10 -9 22 -15 26 -12 5 3 9 -2 9
-10 0 -15 -9 -15 -57 -3 -31 8 -80 56 -80 78 0 10 3 12 8 5 4 -6 15 -14 26
-17 11 -4 16 -13 12 -22 -3 -8 -1 -15 5 -15 19 0 21 30 4 56 -14 21 -19 24
-26 13 -7 -11 -9 -10 -9 4 0 10 -6 17 -12 15 -17 -6 -38 -70 -28 -83 4 -5 10
-29 13 -53 2 -23 6 -44 8 -45 8 -6 54 -24 59 -24 3 0 15 -5 28 -12 16 -8 27
-9 42 -1 18 9 20 8 20 -15 0 -14 -4 -25 -10 -25 -5 0 -10 6 -10 14 0 9 -7 12
-21 9 -12 -4 -25 0 -30 8 -7 11 -9 10 -9 -3 0 -10 6 -18 13 -19 6 0 3 -4 -8
-9 l-20 -9 20 -1 c11 -1 34 -2 50 -1 29 2 29 1 10 -14 -11 -9 -19 -21 -17 -26
1 -5 -3 -9 -9 -9 -11 0 -49 -37 -49 -48 0 -2 11 -1 25 2 18 5 25 2 25 -9 0
-22 -37 -18 -63 6 -18 18 -19 21 -4 16 12 -5 16 -3 11 4 -4 6 -1 15 6 19 9 6
9 12 -1 29 -8 11 -17 21 -22 21 -4 0 -6 -4 -3 -9 9 -14 -26 -23 -38 -11 -8 8
-6 9 7 5 13 -6 18 -1 23 24 4 17 13 31 20 31 19 0 18 16 -1 24 -10 3 -15 -1
-15 -11 0 -13 -3 -14 -12 -5 -18 18 -28 15 -28 -8 0 -13 5 -18 15 -14 11 5 13
2 9 -11 -5 -11 -10 -13 -17 -6 -6 6 -17 11 -25 11 -12 0 -12 -3 -2 -15 14 -16
3 -20 -19 -6 -11 7 -9 13 8 30 19 19 20 25 9 39 -11 13 -11 15 5 9 9 -3 17 -2
17 4 0 6 -8 9 -17 7 -11 -2 -17 -11 -15 -21 4 -24 -14 -21 -32 5 -9 12 -16 17
-16 10 0 -7 -6 -12 -12 -11 -24 3 -38 -1 -38 -11 0 -6 11 -8 26 -4 21 6 25 3
23 -12 -2 -11 0 -24 4 -31 4 -6 4 -14 -1 -17 -12 -7 -52 4 -52 15 0 5 -9 9
-21 9 -12 0 -19 5 -16 13 2 6 10 11 16 10 15 -4 14 4 -6 38 -18 30 -33 38 -33
17 0 -9 -3 -9 -12 0 -7 7 -17 12 -22 12 -6 0 2 -12 18 -27 19 -18 25 -28 17
-31 -8 -3 -17 2 -22 9 -5 8 -9 9 -9 3 0 -16 25 -35 35 -26 4 4 2 -4 -5 -18 -7
-14 -18 -29 -24 -33 -7 -6 -6 -7 4 -5 8 3 23 -5 35 -17 19 -21 71 -33 60 -14
-9 14 0 11 39 -12 32 -19 36 -19 36 -4 0 11 5 15 15 11 51 -20 51 -20 38 -5
-10 13 -10 16 3 16 10 0 14 -8 12 -21 -2 -12 -8 -20 -15 -19 -12 3 -12 -29 1
-38 4 -4 3 -16 -3 -27 -10 -19 -15 -20 -36 -10 -14 6 -25 15 -25 20 0 11 17
10 25 -2 9 -15 25 -12 25 5 0 8 -4 15 -9 15 -6 0 -8 9 -6 19 3 14 -1 18 -11
14 -8 -3 -22 -2 -31 2 -10 4 -40 9 -66 10 -29 2 -56 10 -67 20 -21 19 -28 7
-8 -13 15 -15 6 -24 -15 -16 -9 3 -15 13 -15 22 1 9 -4 34 -11 55 -11 31 -15
36 -27 26 -19 -16 -19 -50 1 -43 9 4 15 0 15 -10 0 -10 -6 -13 -15 -10 -8 4
-15 1 -15 -5 0 -6 6 -11 13 -11 8 0 22 -9 33 -21 11 -13 26 -18 39 -15 24 6
39 -3 43 -27 3 -17 2 -17 -22 -1 -15 9 -26 12 -26 5 0 -5 -6 -9 -12 -7 -7 1
-10 1 -5 -1 11 -7 8 -33 -4 -33 -5 0 -7 -5 -4 -10 3 -5 11 -10 17 -10 6 0 9 3
5 6 -12 12 18 32 34 23 17 -9 59 -1 59 11 0 4 -8 10 -18 12 -10 3 -18 15 -19
26 -2 21 -1 21 21 5 13 -10 29 -30 35 -45 7 -16 17 -26 21 -23 5 3 11 1 14 -4
8 -13 54 -10 66 4 6 7 20 11 30 8 14 -4 20 0 20 11 0 10 5 14 10 11 7 -4 7
-12 0 -25 -7 -13 -7 -21 2 -26 6 -4 9 -3 6 2 -3 5 0 15 8 22 12 11 15 10 20
-2 3 -9 11 -16 16 -16 6 0 8 7 4 15 -3 8 -1 15 5 15 14 0 29 -44 17 -51 -5 -3
-2 -12 7 -19 8 -7 16 -9 16 -4 6 37 5 53 -1 49 -14 -9 -18 21 -5 38 12 16 13
15 19 -8 4 -14 11 -23 17 -20 5 4 6 12 2 19 -4 7 0 3 10 -7 19 -21 23 -7 7 24
-13 24 -2 25 16 2 13 -17 14 -17 7 2 -3 11 -10 22 -14 25 -15 10 -14 70 1 70
5 0 7 -13 4 -30 -4 -19 -2 -30 5 -30 6 0 11 -7 11 -15 0 -8 4 -15 10 -15 6 0
5 -10 -2 -27 -17 -43 -17 -83 0 -83 10 0 12 7 8 25 -5 20 -3 25 14 25 18 0 27
21 21 53 -1 5 7 11 18 14 11 3 22 15 25 27 3 12 15 33 26 46 11 13 20 30 20
39 0 14 2 14 11 1 9 -12 10 -11 6 8 -3 12 -2 22 3 22 17 0 15 36 -3 54 -20 19
-20 19 -14 -12 7 -36 -19 -54 -39 -27 -7 9 -16 16 -20 15 -11 -1 -14 29 -4 35
4 3 10 -5 13 -16 7 -26 31 -20 35 9 2 12 8 22 13 22 5 0 9 9 9 19 0 11 5 23
10 26 6 4 7 12 4 18 -4 7 -3 9 1 4 5 -4 20 0 34 10 25 16 26 16 9 -3 -13 -15
-15 -27 -9 -57 5 -21 5 -35 0 -31 -5 3 -9 14 -9 25 0 10 -4 19 -10 19 -5 0
-10 -13 -10 -29 0 -23 4 -28 23 -26 12 1 28 3 36 4 8 0 12 4 8 7 -3 4 1 13 9
21 8 9 13 22 10 29 -3 8 -1 14 4 14 6 0 10 -4 10 -10 0 -5 7 -10 16 -10 14 0
14 3 4 15 -11 13 -10 14 5 8 15 -5 17 -3 12 11 -4 10 -7 20 -7 23 0 4 -9 -2
-20 -12 -16 -14 -20 -15 -20 -4 0 8 4 19 10 25 6 6 5 19 -4 36 -11 20 -11 28
-3 32 8 3 8 5 -1 5 -16 1 -42 26 -42 39 0 10 -23 22 -42 22 -6 0 -7 -8 -3 -17
4 -12 3 -15 -4 -8 -6 6 -8 20 -4 33 4 19 8 20 21 10 13 -11 14 -9 7 12 -10 32
-11 34 -26 24 -19 -12 -60 -14 -54 -3 4 5 -1 12 -10 15 -10 4 -12 11 -7 18 19
24 20 42 1 43 -11 1 -16 -3 -13 -12 4 -10 0 -12 -15 -8 -31 8 -6 42 28 38 26
-3 27 -7 19 -60 -2 -15 3 -21 23 -23 15 -2 33 3 41 11 13 13 16 12 27 -6 11
-16 15 -17 22 -6 7 11 10 9 15 -9 4 -13 13 -22 23 -21 28 4 50 -11 43 -29 -5
-15 -4 -15 11 -3 13 10 17 10 17 1 0 -7 8 -10 19 -7 12 3 22 -1 25 -9 3 -8 9
-14 14 -14 14 0 11 34 -5 52 -8 9 -12 21 -9 27 4 5 -7 18 -23 27 -17 10 -27
22 -24 27 3 6 1 7 -5 3 -6 -4 -9 -14 -6 -24 4 -10 3 -13 -3 -6 -4 6 -28 23
-53 39 -25 15 -39 21 -32 14 15 -16 16 -39 2 -39 -6 0 -23 11 -37 24 -14 13
-31 22 -37 20 -6 -2 -20 3 -31 12 -17 13 -17 15 -2 10 27 -8 21 -1 -24 29 -35
23 -43 25 -55 13 -12 -12 -11 -14 6 -16 45 -4 50 -6 50 -19 0 -11 -4 -11 -21
-3 -17 9 -23 8 -35 -7 -7 -10 -14 -22 -14 -27 0 -14 -40 25 -40 40 0 7 7 17
16 22 14 8 14 11 3 18 -22 13 -93 11 -107 -3 -12 -12 -8 -17 11 -14 12 2 8
-16 -8 -29 -12 -10 -15 -9 -17 6 -2 34 -3 39 -12 53 -6 10 -4 12 10 7 11 -3
32 1 48 9 15 8 33 12 38 9 6 -4 9 -1 6 7 -2 8 -14 18 -26 24 -12 5 -22 17 -22
26 0 19 -61 59 -91 59 -10 0 -36 9 -56 20 -21 11 -43 20 -50 20 -7 0 -16 7
-21 16 -8 14 -12 14 -33 3 -13 -8 -33 -14 -43 -14 -30 0 -31 -24 -2 -35 14 -5
26 -16 26 -24 0 -9 -6 -13 -13 -10 -7 2 -22 -5 -33 -18 l-19 -22 27 17 c22 14
28 14 38 3 12 -16 -3 -32 -20 -21 -14 8 -13 -8 1 -22 15 -15 55 20 44 38 -4 6
6 2 23 -11 17 -13 28 -28 25 -36 -3 -8 0 -14 7 -14 7 0 9 -9 6 -22 -3 -13 -3
-17 0 -10 3 6 12 12 21 12 12 0 12 -2 -1 -16 -15 -14 -19 -14 -48 0 -40 20
-44 20 -27 -1 13 -16 12 -17 -4 -4 -9 8 -15 16 -12 19 7 8 -28 31 -47 32 -9 0
-21 6 -25 14 -10 16 -90 56 -114 56 -19 0 -33 17 -34 40 0 8 -8 14 -17 14 -10
-1 -15 2 -12 7 7 12 -6 11 -45 -2 -22 -8 -30 -16 -26 -26 4 -13 1 -13 -20 1
-14 9 -25 12 -25 7 0 -6 -14 3 -31 19 -20 18 -31 38 -31 54 0 14 -4 26 -9 26
-5 0 -9 4 -9 10 0 6 9 6 24 0 13 -5 27 -6 30 -3 3 3 12 0 21 -7 13 -11 15 -8
15 21 0 26 -3 30 -10 19 -6 -9 -10 -10 -10 -3 0 6 -3 18 -6 26 -7 18 37 32 48
14 5 -8 9 -5 14 8 10 27 27 42 40 38 6 -2 17 3 24 12 10 12 10 15 -3 15 -10 0
-14 6 -11 13 6 16 -39 67 -58 67 -9 0 -9 -3 2 -10 8 -5 15 -14 15 -20 0 -6 7
-15 15 -20 12 -7 12 -12 3 -21 -10 -10 -16 -9 -31 4 -23 21 -31 21 -52 2 -14
-13 -16 -12 -18 10 -1 13 3 27 9 30 6 5 6 12 -3 23 -12 13 -10 14 17 8 38 -10
28 2 -12 13 -24 7 -30 6 -30 -8 0 -9 5 -19 11 -23 6 -5 7 -8 1 -8 -15 0 -29
12 -47 41 -13 20 -23 25 -42 22 -14 -3 -26 -12 -26 -19 0 -16 -26 -19 -35 -4
-3 6 0 10 8 10 7 0 14 7 14 14 0 11 -5 13 -19 5 -20 -11 -42 -3 -32 12 3 5 -1
20 -10 33 -8 13 -12 27 -9 30 9 9 10 55 1 50 -7 -5 -30 30 -24 37 2 2 6 22 9
44 5 28 3 35 -3 25 -8 -12 -11 -11 -16 8 -4 12 -12 22 -19 22 -7 0 -21 11 -31
25 -17 23 -42 37 -30 16 4 -5 -3 -7 -14 -4 -27 7 -19 29 8 25 15 -2 22 2 22
13 0 12 -6 15 -20 10 -25 -8 -48 4 -30 15 17 10 3 31 -15 24 -8 -4 -12 -11 -8
-17 4 -6 1 -7 -7 -2 -10 6 -10 11 3 20 18 13 13 26 -8 19 -7 -3 -16 0 -21 7
-5 9 -2 10 9 6 11 -4 15 0 14 14 -1 21 -37 49 -37 29 0 -5 5 -10 11 -10 5 0 8
-4 4 -10 -3 -5 -12 -7 -20 -4 -8 4 -12 11 -8 17 4 6 0 8 -10 4 -9 -3 -18 0
-21 9 -5 12 -1 14 17 10 14 -4 11 -1 -8 9 -16 8 -39 14 -50 13 -17 -1 -17 -1
3 -5z m-640 -759 c6 3 17 -2 24 -12 7 -10 31 -29 53 -42 54 -33 122 -105 150
-161 13 -25 41 -58 62 -74 21 -16 49 -40 63 -54 14 -15 54 -48 88 -75 34 -27
62 -53 62 -57 0 -5 5 -9 10 -9 14 0 69 -62 70 -78 0 -7 4 -11 9 -7 5 3 12 1
16 -5 3 -5 1 -10 -6 -10 -9 0 -8 -4 1 -15 16 -19 31 -85 19 -85 -5 0 -9 10 -9
23 0 30 -29 70 -45 63 -8 -3 -16 3 -18 12 -4 15 -5 15 -6 -1 0 -10 10 -22 24
-29 15 -7 25 -18 23 -28 -4 -25 24 -72 39 -66 10 4 12 -1 7 -19 -3 -14 -2 -25
3 -25 6 0 15 -11 21 -25 6 -14 15 -25 19 -24 23 4 25 -3 5 -17 -20 -14 -24
-14 -38 0 -19 20 -28 20 -21 2 3 -7 1 -18 -5 -24 -8 -8 -7 -13 5 -18 9 -3 17
-11 17 -16 0 -6 -7 -7 -15 -4 -11 4 -15 0 -13 -11 2 -11 -5 -18 -17 -20 -11
-2 -36 -8 -56 -14 -30 -10 -44 -8 -78 7 -40 17 -48 33 -35 68 3 8 12 12 20 9
9 -3 14 1 14 12 0 12 6 15 23 10 17 -5 19 -4 7 4 -12 9 -11 11 8 11 12 0 22 6
22 15 0 7 8 19 18 24 15 9 15 10 0 11 -9 0 -19 6 -22 13 -2 6 -4 1 -3 -12 1
-13 -4 -26 -11 -28 -8 -3 -10 1 -6 12 4 10 2 15 -7 13 -8 -2 -13 4 -11 14 1 9
-2 19 -8 23 -5 3 -10 -1 -10 -10 0 -9 -4 -14 -9 -11 -5 4 -7 -3 -4 -14 3 -11
12 -20 19 -20 11 0 12 -4 2 -19 -10 -17 -24 -27 -71 -49 -4 -2 -4 4 0 14 5 13
3 15 -7 9 -8 -5 -11 -4 -7 3 13 20 -5 44 -29 39 -27 -5 -30 3 -11 22 10 10 7
10 -15 2 -29 -11 -45 -1 -32 22 4 7 3 9 -2 4 -14 -13 -12 -56 2 -50 13 5 44
-33 44 -54 0 -22 -18 -14 -22 9 -4 27 -28 36 -28 11 -1 -12 -5 -8 -14 12 -7
18 -15 25 -19 18 -4 -6 10 -28 31 -50 29 -29 37 -44 32 -58 -6 -17 -8 -16 -14
8 -3 15 -10 26 -14 26 -15 -2 -52 14 -52 23 0 5 5 6 12 2 7 -4 8 -3 4 4 -8 13
-36 5 -36 -10 0 -5 9 -12 21 -15 13 -4 18 -11 14 -21 -3 -8 0 -19 7 -24 10 -6
8 -8 -4 -8 -10 0 -18 5 -18 12 0 24 -11 -1 -15 -35 -3 -26 0 -37 11 -41 13 -5
14 -9 4 -21 -7 -8 -19 -15 -26 -15 -16 0 -18 -12 -4 -26 6 -6 2 -14 -12 -23
-18 -11 -20 -11 -15 3 4 9 2 16 -3 16 -9 0 -14 -21 -11 -42 0 -4 -11 -3 -25 2
-34 13 -34 13 -34 -15 0 -19 -5 -25 -22 -26 -13 0 -31 -2 -41 -4 -17 -3 -44
31 -33 43 3 3 6 1 6 -5 0 -16 42 -24 57 -11 18 14 16 31 -2 24 -8 -3 -15 0
-15 7 0 7 -4 18 -9 26 -8 12 -12 12 -26 -3 -25 -24 -38 -6 -31 41 5 28 14 41
33 50 22 10 29 10 36 0 6 -8 7 -7 3 6 -3 10 0 17 8 17 8 0 11 10 8 30 -2 17
-9 30 -14 30 -5 0 -7 -4 -4 -9 8 -12 -4 -41 -16 -41 -6 0 -6 6 1 14 10 11 10
20 1 37 -11 20 -10 21 18 17 24 -3 32 0 36 15 3 14 11 18 26 14 22 -6 41 18
32 42 -2 8 2 19 10 25 17 13 43 57 40 69 -1 4 5 7 13 7 13 0 14 2 3 14 -11 12
-14 12 -21 0 -4 -8 -5 -19 -2 -24 3 -6 1 -10 -4 -10 -6 0 -11 -6 -12 -12 0 -7
-19 -27 -42 -43 -23 -17 -42 -37 -42 -45 0 -8 -6 -21 -13 -29 -12 -12 -15 -12
-23 0 -20 32 3 91 29 75 6 -3 12 3 15 13 3 14 11 18 25 14 25 -6 36 11 19 29
-18 19 -7 106 12 94 4 -3 5 9 3 26 -3 21 -1 29 7 24 6 -4 11 -3 11 3 0 5 -5
13 -10 16 -6 4 -8 10 -5 15 3 4 -2 13 -9 19 -12 10 -13 8 -9 -9 5 -20 4 -21
-14 -10 -18 12 -19 15 -6 41 14 29 40 42 30 15 -5 -13 10 -36 24 -36 4 0 10 7
13 16 5 12 1 14 -16 8 -21 -6 -21 -5 -9 10 8 9 20 15 27 12 10 -4 11 0 2 19
-13 28 -36 33 -44 10 -4 -8 -12 -15 -20 -15 -8 0 -14 -4 -14 -10 0 -15 -19
-12 -36 5 -8 8 -21 12 -29 9 -17 -7 -18 -3 -9 20 3 9 10 13 16 10 11 -7 37 25
38 47 0 9 7 22 15 29 9 7 13 21 10 31 -5 15 -3 17 12 12 17 -7 17 -6 1 10 -11
12 -16 27 -12 45 7 39 -22 69 -75 77 -42 7 -43 6 -36 -16 6 -19 5 -21 -5 -13
-16 16 -3 57 16 50 9 -4 14 2 14 17 0 18 -2 19 -10 7 -7 -11 -10 -12 -10 -2 0
8 -9 25 -20 39 -11 14 -20 21 -20 14 0 -6 -7 -11 -15 -11 -8 0 -12 -6 -9 -14
3 -8 0 -17 -6 -21 -8 -5 -11 4 -9 32 2 21 0 44 -5 51 -5 8 -2 10 8 6 11 -4 16
0 16 12 0 15 2 16 9 5 5 -7 13 -11 19 -7z m1307 -224 c3 -5 3 -15 -1 -21 -4
-8 -9 -7 -15 2 -7 11 -9 10 -9 -3 0 -10 4 -18 8 -18 11 0 10 -43 -2 -51 -4 -4
1 -16 13 -28 25 -25 27 -35 6 -27 -24 9 -17 -11 11 -33 26 -21 21 -27 -10 -15
-9 3 -13 10 -10 15 3 5 -2 12 -10 15 -11 4 -14 14 -10 30 4 14 2 24 -4 24 -6
0 -12 -10 -14 -22 -2 -13 -9 -22 -16 -20 -14 2 -15 -8 -2 -28 6 -9 10 -11 10
-3 0 7 7 10 15 7 8 -4 15 -12 15 -20 0 -13 5 -15 43 -18 17 -1 30 -24 21 -38
-4 -6 -3 -8 4 -4 17 10 24 -30 10 -53 -7 -12 -16 -21 -21 -21 -4 0 -6 -4 -2
-9 3 -5 1 -12 -5 -16 -15 -9 -12 -22 6 -29 11 -4 15 -2 11 8 -4 10 -1 13 9 9
13 -5 12 -8 -3 -26 -11 -12 -12 -17 -4 -12 10 6 13 4 9 -6 -4 -9 1 -15 11 -15
13 0 17 10 18 36 2 70 6 99 13 95 12 -8 19 -45 8 -45 -5 0 -6 -5 -3 -10 4 -6
14 -8 23 -6 10 3 24 1 32 -5 13 -9 12 -10 -2 -5 -17 5 -22 -4 -19 -33 2 -11 0
-11 -12 0 -8 8 -12 19 -9 24 3 6 -2 4 -11 -3 -9 -8 -15 -24 -14 -35 1 -17 -4
-22 -23 -23 -14 -1 -31 3 -39 10 -12 9 -13 8 -7 -4 7 -11 4 -10 -9 2 -17 16
-19 16 -32 0 -11 -15 -12 -13 -2 13 5 16 14 34 20 41 6 7 -6 19 -40 37 -26 15
-51 24 -55 20 -3 -3 -18 -8 -32 -9 -14 -2 -23 0 -20 3 3 3 1 12 -5 19 -6 7 -8
18 -4 24 9 14 42 13 48 -2 3 -7 5 -4 4 8 -1 16 -7 20 -34 20 -18 -1 -33 -4
-33 -8 0 -4 -8 -5 -17 -1 -14 5 -13 1 5 -16 22 -22 31 -48 12 -36 -5 3 -10 2
-10 -3 0 -13 25 -33 33 -26 3 3 10 -3 16 -14 10 -19 6 -32 -10 -32 -5 0 -6 8
-2 18 6 16 5 15 -15 -1 -11 -11 -26 -16 -31 -12 -7 4 -11 -5 -11 -22 l0 -28
-24 30 c-18 22 -28 27 -36 19 -8 -8 -7 -14 5 -24 8 -7 15 -16 15 -21 0 -14
-20 -11 -36 5 -7 8 -18 16 -24 18 -5 1 -7 13 -3 26 3 13 11 21 18 18 7 -2 18
7 24 21 7 14 14 23 18 20 3 -4 0 -13 -7 -22 -7 -8 -8 -15 -2 -15 5 0 13 8 17
18 6 15 8 15 26 -7 15 -18 23 -21 31 -13 9 9 9 12 -1 12 -8 0 -24 11 -36 24
-13 14 -26 22 -29 18 -4 -3 -4 2 0 11 4 10 12 16 19 13 8 -3 10 4 7 20 -2 13
-8 21 -13 18 -10 -6 -12 20 -3 53 4 13 10 20 15 18 4 -3 6 -12 3 -20 -3 -7 -2
-21 4 -30 8 -15 10 -15 24 -1 14 14 17 13 31 -7 8 -12 18 -19 21 -16 12 11 15
49 4 49 -5 0 -7 -8 -4 -17 5 -15 4 -15 -9 1 -17 23 -15 27 19 30 22 3 25 0 20
-20 -4 -17 1 -27 20 -39 23 -15 28 -44 5 -30 -5 4 -9 1 -9 -4 0 -21 49 -12 61
11 11 21 12 21 24 -8 6 -16 9 -31 6 -34 -13 -11 -10 -29 4 -24 8 4 12 10 9 15
-3 5 0 9 7 9 8 0 8 4 -1 15 -10 12 -10 15 4 15 9 0 16 -4 16 -10 0 -5 5 -10
10 -10 6 0 10 7 10 15 0 8 -8 15 -19 15 -10 0 -30 11 -45 25 -29 27 -46 34
-27 11 9 -10 9 -16 1 -21 -13 -8 -60 21 -60 38 0 8 3 8 9 -2 5 -7 15 -11 22
-9 9 3 7 10 -9 26 -12 12 -19 22 -14 22 4 0 -1 7 -11 14 -15 12 -16 15 -2 26
13 11 13 15 3 21 -19 13 -30 11 -22 -3 5 -10 4 -10 -6 -1 -7 7 -15 28 -17 48
-3 30 -1 35 17 35 12 0 19 -4 16 -9 -3 -4 1 -17 9 -27 8 -10 15 -14 15 -7 0 6
-5 15 -10 18 -8 5 -7 11 1 21 9 11 9 14 0 14 -7 0 -9 5 -6 11 10 15 55 -29 55
-53 0 -10 5 -18 11 -18 7 0 8 11 4 30 -10 47 11 91 30 60z m-1247 -117 c14
-12 14 -13 -1 -13 -12 0 -17 -8 -17 -27 0 -26 -1 -26 -17 -10 -16 16 -16 19
-3 27 13 8 13 10 -1 10 -17 0 -29 -19 -29 -46 0 -8 3 -13 8 -13 21 4 42 -2 42
-12 0 -5 -4 -8 -9 -5 -5 3 -12 -1 -15 -10 -3 -8 -2 -13 3 -10 5 3 14 -1 21 -9
6 -7 18 -11 26 -8 8 3 14 -1 14 -11 0 -9 5 -16 11 -16 6 0 8 7 5 16 -3 8 -2
12 3 9 12 -6 10 -45 -1 -45 -4 0 -8 -5 -8 -11 0 -6 9 -8 20 -4 19 6 18 4 -3
-19 -25 -26 -47 -34 -47 -16 0 6 8 10 18 10 14 0 15 2 2 10 -24 15 -30 12 -30
-16 0 -14 -4 -23 -10 -19 -5 3 -10 2 -10 -2 0 -5 8 -13 19 -20 14 -9 24 -9 42
1 22 11 24 10 25 -14 1 -25 -2 -27 -38 -27 -29 0 -38 4 -36 16 2 10 -5 16 -21
17 -23 1 -23 0 -7 -11 9 -7 16 -15 15 -17 -1 -1 2 -14 6 -27 5 -17 3 -28 -7
-35 -22 -18 -9 -63 15 -50 9 5 9 4 0 -6 -6 -7 -9 -20 -6 -29 4 -13 3 -14 -5
-1 -6 8 -9 17 -6 21 2 4 -6 9 -17 12 -12 3 -18 10 -14 17 4 6 2 17 -5 25 -13
16 3 30 25 21 19 -7 19 9 0 28 -9 8 -22 13 -30 9 -11 -4 -13 -1 -9 11 3 9 1
22 -5 30 -6 7 -7 17 -3 21 4 5 1 5 -5 1 -18 -10 -16 -65 2 -72 11 -5 12 -10 6
-18 -7 -9 -6 -19 4 -33 13 -19 13 -21 -6 -26 -16 -4 -19 -2 -15 10 6 15 -26
57 -36 48 -2 -2 -4 5 -4 15 0 11 4 20 8 20 4 0 8 8 8 17 0 14 -5 12 -26 -8
-25 -22 -26 -22 -16 -3 9 17 8 24 -2 33 -11 9 -16 6 -25 -16 -10 -25 -11 -25
-6 -3 2 14 5 33 5 43 0 15 3 16 20 7 11 -6 20 -18 20 -26 0 -8 5 -12 11 -9 6
4 8 13 5 21 -3 8 -1 14 3 14 5 0 11 -5 13 -12 3 -8 6 -9 11 -1 4 6 -2 21 -13
33 -11 13 -17 26 -12 29 4 3 8 17 8 31 0 14 4 39 7 55 4 17 4 24 1 17 -11 -24
-43 -34 -59 -18 -10 10 -12 17 -4 21 7 5 5 13 -7 26 -15 17 -15 19 -1 25 15 5
15 8 0 30 -10 16 -11 24 -4 24 19 0 31 -43 15 -56 -11 -9 -9 -15 12 -35 17
-16 24 -19 22 -9 -2 10 4 15 18 14 17 -1 21 4 19 22 -2 18 3 24 16 24 11 0 21
10 25 24 7 29 35 39 48 16 5 -8 16 -21 24 -27z m362 -785 c-11 -12 -17 -25
-14 -29 8 -13 34 2 34 19 0 12 5 9 17 -8 10 -14 29 -35 43 -47 14 -12 20 -23
13 -23 -6 0 -24 13 -40 29 l-29 28 -10 -33 c-10 -30 -9 -34 8 -34 11 0 17 4
13 9 -11 18 11 19 34 2 l24 -18 -37 -7 c-46 -9 -47 -24 -1 -19 21 2 35 -1 35
-7 0 -6 4 -9 9 -5 5 3 12 1 15 -4 3 -5 -2 -12 -11 -16 -10 -3 -19 -1 -21 4 -6
17 -22 2 -22 -21 0 -15 4 -18 18 -13 30 12 37 10 34 -7 -2 -10 3 -18 9 -18 7
0 9 -3 6 -7 -4 -3 -2 -12 5 -20 10 -12 7 -12 -16 -2 -15 7 -25 18 -22 26 8 19
2 16 -20 -9 -16 -18 -17 -21 -2 -15 11 4 19 0 23 -12 3 -11 15 -21 26 -24 12
-3 18 -10 15 -16 -4 -5 -2 -12 3 -15 5 -3 11 1 14 8 3 8 1 16 -5 18 -7 3 -3
13 11 27 l22 22 -6 -40 c-4 -30 -2 -41 7 -41 7 0 18 -10 24 -23 8 -18 7 -23
-5 -24 -9 0 -25 -3 -36 -6 -48 -12 -50 -12 -47 6 2 9 -2 17 -7 17 -11 0 -10
-64 2 -67 4 -2 14 -3 23 -3 14 0 14 3 4 15 -10 12 -10 15 1 16 36 3 60 -8 43
-19 -13 -8 -29 -66 -16 -58 5 3 14 -6 20 -19 7 -14 16 -25 22 -25 7 0 9 -8 5
-19 -4 -15 0 -18 20 -18 27 0 32 15 14 48 -6 11 -17 18 -24 15 -22 -8 -26 22
-5 37 11 8 17 17 13 21 -4 4 5 5 21 2 16 -3 31 -8 35 -12 3 -4 -2 -4 -11 -1
-22 8 -24 -8 -3 -17 8 -3 15 -10 15 -15 0 -12 -32 -2 -42 13 -5 8 -8 7 -8 -1
0 -6 12 -21 26 -32 15 -12 22 -21 15 -21 -6 0 -10 -3 -10 -7 1 -5 1 -23 0 -42
-1 -25 -5 -32 -15 -28 -10 4 -13 1 -9 -9 6 -17 11 -18 26 -1 17 19 40 60 30
54 -5 -3 -7 7 -5 24 5 34 19 39 24 7 3 -22 28 -39 28 -18 0 6 -4 8 -10 5 -5
-3 -10 -1 -10 4 0 6 9 11 21 11 25 0 79 -49 79 -72 0 -19 17 -32 40 -33 8 0
15 -6 14 -12 -1 -7 -2 -23 -3 -35 -1 -19 -3 -20 -11 -8 -8 13 -10 12 -10 -3 0
-10 5 -27 10 -37 8 -16 8 -18 -4 -14 -9 3 -15 9 -14 12 3 21 -16 72 -29 76
-20 8 -35 -2 -31 -22 1 -10 -1 -23 -5 -29 -5 -8 -3 -13 7 -13 8 0 17 6 19 13
3 7 6 4 6 -6 1 -10 6 -15 11 -12 9 6 14 -7 11 -27 0 -4 5 -5 13 -2 8 3 17 1
21 -5 14 -24 22 -9 17 35 -4 44 -3 45 17 35 17 -10 20 -9 15 4 -4 9 -1 15 7
15 24 0 21 -57 -3 -74 -12 -9 -19 -18 -16 -21 3 -3 13 1 21 10 22 22 30 19 23
-10 -4 -17 -2 -25 6 -25 32 -1 -38 -30 -79 -33 -12 -1 -29 -11 -37 -22 -14
-17 -17 -18 -26 -5 -6 9 -10 10 -10 3 0 -6 5 -15 10 -18 7 -4 6 -14 -1 -28
-11 -21 -10 -21 15 2 33 31 34 20 1 -23 -14 -18 -25 -41 -25 -51 0 -11 -5 -15
-15 -12 -8 4 -17 2 -20 -2 -2 -5 4 -11 15 -14 11 -3 20 -10 20 -16 0 -9 -5 -9
-20 -1 -24 13 -41 5 -33 -15 3 -10 -2 -15 -16 -15 -12 0 -21 -4 -21 -10 0 -5
5 -10 11 -10 5 0 7 -5 4 -10 -9 -15 -21 -12 -41 7 -17 17 -18 17 -11 0 4 -10
7 -25 7 -33 0 -7 6 -11 14 -8 8 3 16 -3 19 -15 3 -12 11 -20 19 -18 7 2 10 2
6 0 -5 -3 -8 -11 -8 -19 0 -8 -4 -14 -10 -14 -18 0 -32 -40 -20 -55 7 -8 9
-19 5 -25 -10 -16 -33 -12 -45 8 -11 16 -11 16 -6 -1 3 -10 6 -22 6 -27 0 -4
9 -6 20 -3 24 6 27 -12 4 -25 -13 -7 -14 -13 -5 -31 7 -11 8 -21 2 -21 -5 0
-12 8 -16 18 -6 16 -7 16 -17 -1 -5 -11 -11 -26 -12 -35 -2 -9 -9 -18 -16 -20
-9 -3 -11 1 -7 11 3 9 0 21 -7 27 -24 19 -26 60 -3 71 16 9 17 13 6 20 -9 5
-18 4 -24 -5 -5 -7 -17 -11 -25 -8 -11 4 -11 0 3 -16 12 -13 15 -22 8 -27 -6
-3 -9 -21 -6 -40 3 -25 -1 -37 -13 -44 -13 -7 -14 -12 -4 -23 10 -12 4 -21
-33 -47 -25 -18 -42 -26 -39 -18 3 8 -2 17 -11 21 -10 4 -14 2 -9 -6 7 -11
-20 -7 -62 9 -12 4 -15 3 -10 -5 4 -7 14 -12 22 -12 17 0 19 -16 2 -26 -7 -4
-8 -3 -4 4 12 19 -30 14 -45 -5 -12 -15 -12 -16 3 -11 11 5 18 0 21 -13 4 -16
1 -18 -21 -12 -15 3 -28 10 -30 15 -2 4 -14 5 -26 2 -18 -4 -25 -1 -29 15 -3
15 -1 18 11 14 9 -4 13 -2 9 4 -4 5 5 15 18 21 28 13 34 34 9 30 -10 -2 -19 2
-21 9 -2 6 4 13 14 15 16 3 16 5 -4 25 -19 19 -20 24 -8 46 11 22 11 25 -1 20
-10 -4 -12 0 -7 13 5 13 3 15 -7 9 -10 -6 -11 -4 -5 11 10 24 10 44 0 69 -8
18 -7 18 8 6 15 -12 17 -11 15 12 -2 20 -5 23 -15 15 -7 -6 -13 -9 -14 -7 -5
26 -7 51 -3 41 3 -6 10 -10 15 -6 5 3 -2 20 -15 37 -13 18 -27 42 -31 55 -4
15 -12 21 -21 18 -8 -3 -14 -1 -14 3 0 5 6 11 13 14 9 3 8 8 -3 22 -14 17 -14
18 9 5 21 -10 23 -10 18 3 -3 8 -2 18 3 23 5 5 5 29 0 53 -4 25 -6 50 -3 57 2
7 0 28 -5 48 -8 27 -7 38 5 47 8 7 13 24 13 38 -1 14 -1 31 0 36 4 14 6 24 15
73 6 31 12 42 22 38 11 -4 13 -1 8 14 -4 11 -3 20 2 20 5 0 9 8 10 18 1 9 6
39 11 66 5 27 7 57 4 68 -6 23 -29 24 -35 1 -2 -10 -1 5 1 32 3 28 8 52 12 55
13 10 19 39 9 46 -6 3 -8 17 -5 30 4 14 2 24 -4 24 -13 0 -13 37 0 45 6 3 10
15 10 26 0 10 4 19 9 19 13 0 11 52 -3 70 -9 13 -8 13 4 3 13 -10 18 -6 33 27
11 27 21 38 31 34 13 -5 12 -9 -4 -26z m-1636 -368 c6 -6 7 -10 0 -10 -5 0
-15 5 -21 11 -8 8 -13 8 -17 0 -4 -6 -2 -11 5 -11 10 0 10 -3 1 -12 -16 -16
-15 -29 1 -22 19 7 35 -35 31 -81 -1 -22 2 -45 8 -52 5 -7 7 -17 4 -22 -4 -5
-1 -13 5 -17 8 -4 4 -11 -12 -20 -13 -7 -18 -13 -10 -14 11 0 11 -3 1 -14 -9
-12 -7 -17 9 -28 12 -7 21 -20 21 -29 0 -26 -28 -31 -43 -8 -14 20 -14 20 -20
-1 -6 -24 -22 -26 -31 -4 -4 10 -2 13 6 8 7 -5 8 -3 4 5 -5 7 0 18 10 26 11 8
14 15 7 15 -6 0 -24 -15 -39 -32 -16 -20 -24 -25 -20 -13 5 11 11 30 13 42 3
13 10 20 16 16 6 -3 7 -1 3 5 -8 14 -36 16 -36 3 0 -5 -6 -11 -14 -14 -11 -4
-14 1 -12 21 1 15 8 26 14 24 7 -1 27 5 45 15 29 15 30 17 12 22 -22 6 -28 38
-6 33 7 -1 11 5 9 15 -3 12 -12 17 -26 16 -12 -2 -22 2 -22 9 0 6 3 8 7 5 9
-10 43 23 43 43 0 9 -6 22 -12 29 -11 10 -10 12 1 9 7 -2 16 3 18 10 7 17 -12
15 -31 -4 -9 -8 -16 -11 -16 -6 0 5 6 15 14 22 8 6 12 18 10 25 -5 11 1 12 27
5 18 -5 37 -14 43 -20z m610 -261 c-3 -5 -11 -7 -17 -3 -7 3 -4 -1 5 -8 21
-18 35 -68 18 -68 -6 0 -8 5 -5 10 8 13 -15 9 -31 -5 -7 -5 -10 -14 -7 -19 3
-4 9 -2 14 5 7 12 9 12 9 0 0 -7 6 -11 15 -7 10 4 15 -1 15 -15 0 -14 5 -19
13 -16 8 3 20 1 28 -4 11 -7 11 -9 -3 -9 -11 0 -15 -5 -12 -15 7 -18 -7 -20
-26 -2 -8 6 -6 2 4 -10 10 -12 20 -40 23 -62 4 -27 11 -41 21 -41 11 0 12 -3
3 -13 -6 -8 -8 -16 -5 -20 7 -7 -46 -67 -59 -67 -6 0 -3 8 6 18 9 10 14 30 12
52 -2 19 -4 41 -4 49 -1 10 -4 11 -15 2 -12 -10 -14 -6 -13 21 2 28 -2 34 -30
43 -42 14 -47 20 -35 42 6 12 5 28 -3 48 -12 28 -8 45 23 85 1 2 7 -2 12 -10
7 -12 10 -9 10 12 0 21 4 25 20 21 11 -3 17 -9 14 -14z"/>
<path d="M2356 2505 c3 -8 -1 -22 -10 -30 -22 -22 -20 -38 4 -32 11 3 18 2 15
-3 -3 -4 2 -13 10 -20 9 -7 13 -21 10 -30 -3 -11 1 -20 10 -24 8 -3 15 -9 14
-13 -4 -23 2 -35 17 -29 8 3 12 2 9 -4 -3 -6 0 -10 8 -10 8 0 18 -7 21 -16 3
-8 11 -12 17 -8 7 4 18 -1 25 -11 8 -10 17 -15 21 -11 4 4 3 10 -3 14 -14 9
-25 52 -14 52 5 0 12 -5 15 -10 4 -6 11 -8 17 -4 5 4 8 -3 6 -16 -2 -13 3 -25
10 -27 6 -3 12 3 12 14 0 10 6 29 13 43 22 43 28 62 16 54 -7 -4 -9 1 -4 15 5
16 3 20 -9 15 -9 -3 -16 -14 -16 -23 0 -9 -6 -23 -12 -29 -10 -10 -10 -15 2
-22 12 -8 11 -10 -6 -10 -12 0 -27 6 -33 14 -15 18 -52 9 -44 -10 8 -22 -15
-16 -27 6 -6 11 -7 20 -3 19 4 -1 17 -1 28 0 18 2 17 3 -5 12 -18 7 -21 12
-11 18 20 13 9 44 -18 48 -35 5 -52 23 -45 46 4 12 2 17 -4 13 -5 -3 -12 1
-16 9 -3 8 -10 15 -15 15 -6 0 -8 -7 -5 -15z"/>
<path d="M4648 1882 c9 -6 2 -12 -24 -20 -21 -6 -41 -9 -46 -6 -4 3 -5 -2 -2
-10 3 -9 11 -13 17 -9 5 3 7 1 4 -4 -4 -6 -18 -8 -32 -5 -20 3 -24 1 -19 -12
3 -9 2 -16 -4 -16 -6 0 -13 6 -15 13 -4 10 -6 10 -6 0 -1 -7 -6 -13 -12 -13
-7 0 -10 14 -7 35 2 22 0 34 -6 32 -6 -2 -12 -23 -14 -46 -2 -31 0 -41 9 -36
7 5 10 3 7 -6 -3 -8 -11 -13 -17 -11 -6 1 -12 -7 -12 -18 -2 -30 -3 -31 -27
-81 -26 -53 -74 -100 -91 -90 -15 10 -39 7 -71 -8 -24 -11 -24 -11 6 -7 53 8
58 -10 19 -80 l-35 -62 46 -46 c26 -25 48 -46 50 -46 2 0 4 14 4 31 0 43 28
99 46 92 8 -3 14 -1 14 5 0 6 -6 12 -12 14 -8 3 -2 15 16 31 16 15 30 37 31
50 1 16 8 22 24 21 12 0 20 4 18 10 -3 6 -11 10 -18 8 -8 -2 -10 0 -6 5 5 4
21 8 35 8 19 0 26 4 23 15 -8 31 0 65 18 80 10 8 33 45 50 83 24 50 37 67 52
67 27 0 21 34 -6 38 -14 2 -16 0 -7 -6z"/>
<path d="M4242 1386 c-12 -6 -20 -17 -17 -23 7 -21 -14 -15 -27 7 -12 19 -13
19 -25 -12 -9 -27 -12 -29 -12 -10 -1 12 -6 22 -12 22 -14 0 -2 -56 19 -88 10
-16 17 -19 22 -12 5 8 10 9 14 2 3 -6 -3 -13 -14 -17 -17 -5 -18 -9 -8 -28 10
-20 10 -21 -6 -8 -9 8 -15 20 -12 28 3 7 -2 21 -12 31 -16 16 -19 17 -35 2 -9
-9 -17 -21 -17 -26 0 -5 5 -2 10 6 8 13 10 12 11 -5 1 -11 1 -23 1 -26 -1 -4
6 -6 16 -5 11 1 18 -7 20 -21 2 -15 -2 -23 -12 -23 -18 0 -29 -16 -21 -31 4
-6 18 2 34 20 15 17 33 31 39 31 7 0 12 9 12 19 0 10 7 21 15 25 14 5 14 2 1
-23 -16 -31 -13 -43 10 -34 8 3 14 -1 14 -10 0 -8 -7 -14 -17 -13 -11 1 -19
-11 -25 -34 -5 -19 -14 -39 -20 -45 -8 -7 -9 -5 -5 8 7 19 -8 24 -19 5 -5 -7
-11 -5 -21 7 -8 13 -13 14 -13 5 0 -18 -11 -7 -14 14 -5 37 -25 13 -29 -35 -1
-14 -6 -15 -26 -8 -21 8 -22 8 -11 -6 7 -8 20 -15 29 -15 9 0 22 -9 29 -20 7
-12 18 -18 24 -14 8 5 9 2 5 -9 -4 -11 3 -27 20 -44 18 -19 27 -24 30 -15 4
10 9 9 24 -4 10 -9 16 -22 12 -28 -4 -8 -3 -8 5 -1 8 8 9 21 3 43 -6 20 -6 32
0 32 5 0 9 -4 9 -10 0 -5 9 -14 20 -20 14 -7 20 -7 20 0 0 5 -7 10 -15 10 -8
0 -15 7 -15 15 0 8 -6 15 -12 16 -7 0 -2 4 10 10 30 12 38 6 45 -31 5 -21 12
-30 27 -30 11 0 20 5 20 10 0 6 -4 10 -8 10 -4 0 -5 26 -1 58 4 31 8 68 8 81
1 24 1 24 -14 5 -8 -10 -15 -14 -16 -9 -1 6 -4 -3 -8 -19 -7 -32 -31 -48 -31
-20 0 9 -3 14 -7 11 -3 -4 -12 -2 -20 5 -11 8 -12 7 -7 -6 3 -9 1 -16 -5 -16
-16 0 -13 43 5 66 15 19 15 18 11 -3 -4 -16 1 -24 15 -29 28 -8 31 -1 13 32
-13 26 -13 29 3 35 9 4 20 5 25 2 4 -2 7 7 7 21 0 27 -15 36 -23 14 -2 -7 -2
0 1 16 l4 30 -25 -30 c-15 -16 -27 -23 -27 -16 0 7 11 25 24 39 14 15 22 31
19 36 -3 5 0 7 8 5 8 -3 13 -13 12 -22 -1 -12 4 -15 14 -12 12 5 14 1 9 -18
-3 -14 -2 -28 4 -31 5 -3 10 -15 10 -26 0 -10 4 -19 9 -19 13 0 6 94 -9 131
-10 22 -15 27 -21 17 -7 -10 -9 -9 -9 3 0 9 -11 24 -25 33 -19 12 -24 23 -20
37 4 10 5 18 3 18 -2 -1 -13 -6 -26 -13z"/>
<path d="M4034 957 c7 -46 6 -48 -13 -42 -13 4 -21 2 -21 -5 0 -6 4 -9 9 -6 5
4 12 0 14 -6 4 -10 8 -9 16 2 15 21 27 2 30 -48 1 -6 6 -11 13 -10 6 2 18 -9
25 -24 8 -16 18 -28 24 -28 17 0 9 -29 -12 -41 -15 -8 -18 -14 -10 -22 6 -6
11 -19 11 -29 0 -12 5 -15 16 -11 12 4 14 0 9 -23 -6 -28 -6 -28 9 -10 18 23
20 36 6 36 -6 0 -15 12 -20 26 -8 19 -6 29 5 40 8 9 15 22 15 30 0 18 14 18
30 -1 6 -8 15 -13 18 -12 4 1 9 -3 11 -8 2 -6 12 -22 22 -37 10 -14 19 -31 19
-37 0 -6 5 -11 10 -11 6 0 10 4 10 9 0 17 -32 86 -44 93 -8 6 -7 8 2 8 16 0
13 59 -5 78 -17 18 -23 15 -23 -10 0 -18 -2 -20 -9 -9 -5 8 -7 20 -4 28 3 7 0
13 -6 13 -6 0 -10 -13 -9 -30 1 -16 7 -30 12 -30 6 0 5 -5 -2 -12 -29 -29 -46
43 -20 81 17 24 16 25 -5 40 -12 8 -26 21 -30 28 -11 18 -27 16 -27 -2 0 -8
-4 -15 -10 -15 -5 0 -10 6 -10 14 0 8 -4 18 -10 21 -6 4 -7 -1 -3 -12 5 -14 0
-12 -22 7 l-28 25 7 -48z"/>
<path d="M4545 907 c2 -19 10 -43 19 -53 8 -11 24 -30 35 -44 10 -14 23 -22
27 -18 4 4 1 14 -6 22 -10 13 -8 13 19 0 32 -16 43 -28 16 -18 -16 7 -21 -11
-5 -21 5 -3 7 -12 4 -19 -3 -8 -1 -17 5 -21 6 -3 11 -17 11 -31 0 -13 5 -24
11 -24 7 0 9 -10 7 -25 -3 -14 -2 -25 1 -25 3 0 19 -11 35 -25 16 -14 30 -25
31 -25 5 0 -3 72 -10 78 -3 4 -6 2 -5 -3 5 -22 -1 -27 -15 -15 -12 10 -15 10
-15 0 0 -8 -2 -11 -5 -8 -10 9 7 38 18 31 6 -4 8 0 4 10 -3 9 -2 19 3 22 21
13 -15 87 -59 119 -17 13 -28 25 -25 28 3 3 -6 15 -20 26 -14 10 -23 22 -19
25 3 4 -3 10 -13 13 -10 4 -26 13 -35 21 -15 12 -16 10 -14 -20z"/>
<path d="M4556 825 c10 -15 12 -25 5 -25 -15 0 -10 -22 9 -37 13 -11 13 -12
-2 -13 -9 0 -20 10 -24 23 -7 20 -9 19 -14 -13 -3 -20 -11 -34 -18 -32 -17 3
-15 -8 9 -48 15 -24 17 -30 5 -21 -14 12 -16 11 -16 -8 0 -13 4 -20 11 -15 6
3 10 -1 9 -12 -4 -39 -1 -45 23 -39 15 4 18 3 8 -3 -10 -7 -11 -14 -2 -30 6
-12 13 -34 15 -49 2 -15 7 -36 11 -45 5 -13 2 -18 -10 -18 -11 0 -15 5 -11 15
3 9 -1 18 -9 21 -8 4 -15 13 -15 22 0 11 -3 13 -10 6 -7 -7 -3 -24 11 -54 15
-31 23 -39 29 -30 7 11 11 11 24 1 8 -7 20 -10 25 -6 7 4 8 -1 4 -11 -5 -14
-3 -16 11 -11 16 6 17 3 11 -35 -7 -40 -7 -42 11 -28 16 14 17 13 11 -2 -9
-24 -3 -23 28 7 27 24 48 86 38 111 -3 8 -10 11 -15 8 -6 -4 -5 -10 3 -15 11
-7 10 -9 -3 -9 -13 0 -18 8 -18 26 0 14 4 23 10 19 6 -3 10 1 10 9 0 9 -5 16
-11 16 -6 0 -8 9 -4 20 4 12 2 20 -5 20 -7 0 -9 11 -7 29 4 20 0 31 -10 35 -8
3 -13 16 -12 28 4 29 -19 71 -33 62 -7 -4 -8 -3 -4 4 4 7 -4 24 -18 39 -14 15
-23 30 -20 34 7 12 -16 54 -37 67 -19 12 -19 12 -3 -13z"/>
</g>
</svg>
